<svg width="116" height="131" viewBox="0 0 116 131" fill="none" xmlns="http://www.w3.org/2000/svg">
<path opacity="0.2" d="M87.833 8.42078H43.5312C36.6148 8.42078 30.2238 12.1133 26.7656 18.1073L4.61466 56.5009C1.15644 62.4949 1.15644 69.8798 4.61466 75.8739L26.7656 114.267C30.2238 120.261 36.6148 123.954 43.5312 123.954H87.833C94.7495 123.954 101.14 120.261 104.599 114.267L126.75 75.8738C130.208 69.8798 130.208 62.4949 126.75 56.5009L104.599 18.1073C101.14 12.1132 94.7495 8.42078 87.833 8.42078Z" fill="url(#paint0_linear_1_3241)"/>
<path d="M15.1574 63.5678C15.1594 66.0397 17.1698 68.0419 19.6478 68.0399H97.2327C99.7107 68.0419 101.721 66.0397 101.723 63.5678V18.1888H15.1574V63.5678Z" fill="url(#paint1_linear_1_3241)"/>
<path d="M97.2327 9.76807H19.6478C17.1698 9.76606 15.1594 11.8014 15.1574 14.3141V18.1889H101.723V14.3141C101.721 11.8014 99.7107 9.76606 97.2327 9.76807Z" fill="url(#paint2_linear_1_3241)"/>
<rect x="56.5877" y="41.4303" width="10.4418" height="1.34733" rx="0.673663" fill="url(#paint3_linear_1_3241)"/>
<rect x="56.5877" y="47.4933" width="15.4942" height="1.34733" rx="0.673663" fill="url(#paint4_linear_1_3241)"/>
<rect x="68.7136" y="41.4303" width="4.04198" height="1.34733" rx="0.673663" fill="url(#paint5_linear_1_3241)"/>
<rect x="56.5877" y="44.4618" width="8.08395" height="1.34733" rx="0.673663" fill="url(#paint6_linear_1_3241)"/>
<rect x="66.019" y="44.4618" width="3.03148" height="1.34733" rx="0.673663" fill="url(#paint7_linear_1_3241)"/>
<rect x="75.1134" y="41.4303" width="4.04198" height="1.34733" rx="0.673663" fill="url(#paint8_linear_1_3241)"/>
<rect x="56.5877" y="51.1984" width="22.5677" height="3.36831" rx="1.68416" fill="url(#paint9_linear_1_3241)"/>
<g opacity="0.24">
<rect x="20.2184" y="38.4542" width="32.038" height="18.9339" rx="1.81277" fill="url(#paint10_linear_1_3241)"/>
</g>
<rect x="39.7461" y="44.4618" width="6.3998" height="1.34733" rx="0.673663" fill="white"/>
<rect opacity="0.34" x="39.7461" y="50.1879" width="9.43128" height="1.34733" rx="0.673663" fill="white"/>
<rect opacity="0.34" x="39.4093" y="47.1564" width="5.05247" height="1.34733" rx="0.673663" fill="white"/>
<path d="M29.6412 42.8926V41.0935C25.7377 41.0904 22.5709 44.2573 22.5677 48.167H24.3668C24.3692 45.2517 26.7306 42.8903 29.6412 42.8926Z" fill="white"/>
<path d="M24.0933 48.1669H22.2309C22.2291 49.9237 22.9526 51.6132 24.2504 52.8825L25.5992 51.6831C24.6315 50.7366 24.092 49.4768 24.0933 48.1669Z" fill="white"/>
<path opacity="0.34" d="M34.427 43.2922C33.0929 41.8863 31.2407 41.0914 29.3043 41.0935V42.8926C32.2141 42.8922 34.5744 45.2525 34.5787 48.167H36.3778C36.3795 46.3509 35.6806 44.6043 34.427 43.2922Z" fill="white"/>
<path d="M34.5891 47.8301C34.5855 49.9887 33.2786 51.9279 31.2885 52.728C29.2983 53.528 27.0251 53.0279 25.5473 51.4649L24.2519 52.7047C26.2338 54.8009 29.2824 55.4716 31.9514 54.3987C34.6204 53.3257 36.373 50.725 36.3778 47.8301H34.5891Z" fill="white"/>
<rect opacity="0.34" x="26.2728" y="46.1459" width="6.06297" height="1.68416" rx="0.842079" fill="white"/>
<rect opacity="0.34" x="25.5992" y="48.8406" width="7.74712" height="0.673663" rx="0.336831" fill="white"/>
<rect x="20.2099" y="21.2203" width="53.2194" height="12.4628" rx="3.37617" fill="white"/>
<circle cx="28.7991" cy="27.4518" r="3.53673" fill="url(#paint11_linear_1_3241)"/>
<rect x="35.0305" y="28.2938" width="25.2624" height="1.68416" rx="0.842079" fill="url(#paint12_linear_1_3241)"/>
<rect x="35.0305" y="24.9255" width="9.09445" height="2.02099" rx="1.01049" fill="url(#paint13_linear_1_3241)"/>
<circle cx="30.8201" cy="17.3468" r="0.505247" fill="white"/>
<circle cx="33.1779" cy="17.3468" r="0.505247" fill="white"/>
<circle cx="35.5357" cy="17.3468" r="0.505247" fill="white"/>
<path d="M83.1974 89.9316C100.495 95.2421 110.974 89.9316 110.974 89.9316L111.491 28.9675L98.5423 29.711C87.1959 54.2453 87.4316 82.7094 83.1974 89.9316Z" fill="url(#paint14_linear_1_3241)"/>
<path d="M114.05 12.6397C114.05 12.78 114.523 23.5861 114.523 23.5861C114.523 23.5861 105.718 24.7556 105.765 24.5685C105.813 24.3813 106.432 11.1155 106.432 11.1155L114.05 12.6397Z" fill="url(#paint15_linear_1_3241)"/>
<path d="M104.302 5.38928C104.302 5.38928 101.723 15.0142 101.723 15.7017C101.723 16.3892 107.447 17.3891 108.831 17.1392C110.215 16.8892 112.165 6.13925 112.165 6.13925L104.302 5.38928Z" fill="url(#paint16_linear_1_3241)"/>
<path d="M114.186 13.8066C109.776 13.9212 108.797 11.2263 108.797 11.2263C108.797 11.2263 109.468 6.44772 108.797 6.06299L114.035 6.5648L114.186 13.8066Z" fill="url(#paint17_linear_1_3241)"/>
<path d="M109.133 11.515C112.712 8.62593 114.054 10.7593 112.595 12.732C111.135 14.7048 109.915 14.8206 109.915 14.8206L109.133 11.515Z" fill="url(#paint18_linear_1_3241)"/>
<path d="M109.829 6.73669L108.845 10.5965C108.845 10.5965 108.401 13.3266 107.401 13.3737C106.402 13.4208 102.633 12.4648 102.328 12.5662C102.023 12.6676 101.261 15.4919 101.404 15.8685C101.547 16.245 107.528 17.3198 108.845 17.1629C110.162 17.006 111.828 9.56095 111.828 9.56095L109.829 6.73669Z" fill="url(#paint19_linear_1_3241)"/>
<path d="M92.6287 107.449L87.4506 129.68L80.5027 128.81L84.6479 107.449H92.6287Z" fill="url(#paint20_linear_1_3241)"/>
<mask id="mask0_1_3241" style="mask-type:luminance" maskUnits="userSpaceOnUse" x="80" y="107" width="13" height="23">
<path fill-rule="evenodd" clip-rule="evenodd" d="M92.5009 107.452L87.3779 129.678L80.504 128.808L84.605 107.452H92.5009Z" fill="white"/>
</mask>
<g mask="url(#mask0_1_3241)">
<path opacity="0.34" d="M84.6463 112.81C78.6213 113.388 85.9852 116.48 89.2189 120.749C92.4526 125.018 90.7761 114.935 90.7761 114.935L85.7989 112.02" fill="url(#paint21_linear_1_3241)"/>
</g>
<path d="M118.831 103.407L127.996 125.88L121.711 129.006L113.175 108.896L118.831 103.407Z" fill="url(#paint22_linear_1_3241)"/>
<mask id="mask1_1_3241" style="mask-type:luminance" maskUnits="userSpaceOnUse" x="113" y="103" width="15" height="27">
<path fill-rule="evenodd" clip-rule="evenodd" d="M118.847 103.439L127.989 125.959L121.72 129.092L113.206 108.939L118.847 103.439Z" fill="white"/>
</mask>
<g mask="url(#mask1_1_3241)">
<path d="M117.009 117.941C112.244 119.551 120.777 118.174 125.205 119.101C129.633 120.027 125.232 115.106 125.232 115.106L119.613 114.947" fill="url(#paint23_linear_1_3241)"/>
<path opacity="0.34" d="M114.948 119.762C124.543 120.186 124.389 116.472 124.389 116.472L114.842 117.275" fill="url(#paint24_linear_1_3241)"/>
</g>
<path d="M65.0085 131.701C65.0085 130.449 65.7997 129.351 66.9595 129.007C71.7015 127.6 81.0166 123.186 81.6709 120.922C81.6709 120.922 84.1601 124.039 81.1525 126.026L89.2603 124.675L88.0323 130.686L65.0085 131.701Z" fill="url(#paint25_linear_1_3241)"/>
<path d="M107.759 133.048C107.073 132.024 107.087 129.574 112.544 129.135C119.241 128.597 118.748 123.934 118.051 121.719C118.051 121.719 121.82 122.891 120.416 126.182L126.395 120.586L128.67 126.184L116.248 132.793L107.759 133.048Z" fill="url(#paint26_linear_1_3241)"/>
<path d="M114.523 19.3114V16.168L106.516 20.3228L106.102 22.2309L114.523 19.3114Z" fill="url(#paint27_linear_1_3241)"/>
<path d="M83.1974 114.638C87.0124 118.232 93.173 117.882 93.173 117.882L101.946 85.6527L110.481 51.4113L91.9211 49.1774L88.7465 85.2662L83.1974 114.638Z" fill="url(#paint28_linear_1_3241)"/>
<mask id="mask2_1_3241" style="mask-type:luminance" maskUnits="userSpaceOnUse" x="83" y="49" width="28" height="69">
<path fill-rule="evenodd" clip-rule="evenodd" d="M83.2339 114.483C87.0412 118.067 93.1893 117.718 93.1893 117.718L101.945 85.5783L110.462 51.4321L91.9399 49.2043L88.7718 85.1929L83.2339 114.483Z" fill="white"/>
</mask>
<g mask="url(#mask2_1_3241)">
<path d="M89.2371 56.7898C94.1175 56.0179 90.7424 91.6978 99.813 101.867C108.884 112.037 105.597 59.519 105.597 59.519L101.392 42.2916" fill="url(#paint29_linear_1_3241)"/>
</g>
<path d="M114.502 118.517C121.931 120.102 124.291 116.274 124.291 116.274L111.669 86.6359C111.669 86.6359 110.68 54.3465 110.207 50.8094C109.66 46.7225 92.6287 51.5994 92.6287 51.5994L101.5 90.4298L114.502 118.517Z" fill="url(#paint30_linear_1_3241)"/>
<mask id="mask3_1_3241" style="mask-type:luminance" maskUnits="userSpaceOnUse" x="92" y="49" width="33" height="71">
<path fill-rule="evenodd" clip-rule="evenodd" d="M114.461 118.767C121.861 120.358 124.212 116.518 124.212 116.518L111.639 86.7836C111.639 86.7836 110.654 54.3902 110.182 50.8417C109.638 46.7417 92.6731 51.6343 92.6731 51.6343L101.51 90.5897L114.461 118.767Z" fill="white"/>
</mask>
<g mask="url(#mask3_1_3241)">
<path d="M90.2948 50.8836C108.281 56.3111 110.627 56.44 111.084 70.0324C111.541 83.6248 117.388 58.1393 117.388 58.1393L111.696 51.1693L103.386 47.5985L90.2948 50.8836" fill="url(#paint31_linear_1_3241)"/>
<path d="M105.324 98.8878C104.43 101.35 115.847 99.5926 119.864 99.9939C123.881 100.395 116.481 93.1803 116.481 93.1803L109.61 93.2864" fill="url(#paint32_linear_1_3241)"/>
</g>
<path d="M90.344 52.6983C90.344 52.6983 106.931 53.4504 112.916 51.9156C112.916 51.9156 119.482 31.6573 118.456 28.2465C117.43 24.8357 114.523 18.5258 114.523 18.5258L107.252 21.7595C107.252 21.7595 88.9759 37.0087 90.344 52.6983Z" fill="url(#paint33_linear_1_3241)"/>
<mask id="mask4_1_3241" style="mask-type:luminance" maskUnits="userSpaceOnUse" x="90" y="18" width="29" height="36">
<path fill-rule="evenodd" clip-rule="evenodd" d="M90.3849 52.9224C90.3849 52.9224 106.872 53.6788 112.822 52.1352C112.822 52.1352 119.348 31.7611 118.328 28.3309C117.308 24.9006 114.419 18.5546 114.419 18.5546L107.192 21.8068C107.192 21.8068 89.0251 37.1431 90.3849 52.9224Z" fill="white"/>
</mask>
<g mask="url(#mask4_1_3241)">
<path d="M112.776 35.0463C106.152 46.8757 110.442 51.3216 90.3849 51.1501C70.3278 50.9786 91.2207 45.1199 91.2207 45.1199L109.422 37.2047L112.776 35.0463" fill="url(#paint34_linear_1_3241)"/>
</g>
<path d="M73.4081 15.7703L100.851 22.0007L94.486 50.0918L67.0428 43.8614L73.4081 15.7703Z" fill="url(#paint35_linear_1_3241)"/>
<path d="M85.7247 18.5665L88.5348 19.2045L82.1695 47.2956L79.3594 46.6577L85.7247 18.5665Z" fill="url(#paint36_linear_1_3241)"/>
<path d="M74.7835 23.5118L78.7521 24.4128L77.5059 29.9126L73.5373 29.0117L74.7835 23.5118Z" fill="url(#paint37_linear_1_3241)"/>
<path d="M83.0224 42.9578C83.0224 42.9578 81.6611 43.105 81.2074 42.9578C80.7536 42.8105 75.4093 42.1039 75.4093 42.1039C75.4093 42.1039 74.5522 43.1639 77.6781 43.5761C77.6781 43.5761 72.485 45.1661 71.1741 44.8422C71.1741 44.8422 70.2666 46.5205 73.8463 46.4616C73.8463 46.4616 74.9555 47.7866 77.9302 47.4333C80.9049 47.0799 87.913 46.4616 87.913 46.4616L83.0224 42.9578Z" fill="url(#paint38_linear_1_3241)"/>
<mask id="mask5_1_3241" style="mask-type:luminance" maskUnits="userSpaceOnUse" x="71" y="42" width="18" height="6">
<path fill-rule="evenodd" clip-rule="evenodd" d="M83.253 42.9839C83.253 42.9839 81.9098 43.1323 81.4621 42.9839C81.0143 42.8355 75.741 42.1232 75.741 42.1232C75.741 42.1232 74.8953 43.1916 77.9797 43.6071C77.9797 43.6071 72.8556 45.2098 71.5622 44.8834C71.5622 44.8834 70.6667 46.5751 74.1988 46.5157C74.1988 46.5157 75.2933 47.8513 78.2284 47.4952C81.1636 47.139 88.0785 46.5157 88.0785 46.5157L83.253 42.9839Z" fill="white"/>
</mask>
<g mask="url(#mask5_1_3241)">
<path opacity="0.34" d="M81.9077 42.5761C79.6442 41.9452 81.4217 46.6768 79.7697 47.7808C78.1176 48.8849 82.9604 48.5329 82.9604 48.5329L83.0657 43.9955" fill="url(#paint39_linear_1_3241)"/>
</g>
<path d="M114.419 18.5258L106.216 20.6849C106.216 20.6849 99.0338 28.6402 98.5051 29.8049C98.5051 29.8049 84.9485 60.0919 100.25 100.005C113.998 100.64 128.67 92.1931 128.67 92.1931C97.3048 47.7525 130.13 44.2158 114.419 18.5258Z" fill="url(#paint40_linear_1_3241)"/>
<mask id="mask6_1_3241" style="mask-type:luminance" maskUnits="userSpaceOnUse" x="92" y="18" width="37" height="83">
<path fill-rule="evenodd" clip-rule="evenodd" d="M114.463 18.5544L106.249 20.7147C106.249 20.7147 99.0572 28.674 98.5277 29.8393C98.5277 29.8393 84.9535 60.1419 100.275 100.075C114.04 100.711 128.732 92.2594 128.732 92.2594C97.3259 47.7961 130.194 44.2576 114.463 18.5544Z" fill="white"/>
</mask>
<g mask="url(#mask6_1_3241)">
<path d="M96.5133 60.5276L97.7363 74.1319L111.518 73.617L110.675 60.4436L96.5133 60.5276Z" fill="url(#paint41_linear_1_3241)"/>
<path d="M95.616 59.8528C95.5279 60.3767 95.2598 64.3941 95.2598 64.3941L111.106 64.462L111.243 59.8767L95.616 59.8528Z" fill="white"/>
<path d="M91.095 62.7261C92.8518 56.1681 106.908 60.3955 109.549 43.7754C110.577 37.3015 97.3258 47.7961 97.3258 47.7961L90.2646 49.3996" fill="url(#paint42_linear_1_3241)"/>
</g>
<path d="M98.6916 29.6411L106.482 20.3811L114.768 18.1888L115.87 20.5125L106.84 22.4918L107.826 23.8075L98.6916 29.6411Z" fill="white"/>
<g opacity="0.69">
<path d="M104.255 32.7087L100.677 32.3536C100.479 32.3339 100.359 32.1366 100.41 31.9129L100.933 29.6078C100.984 29.3841 101.185 29.2186 101.383 29.2383L104.961 29.5934C105.159 29.6131 105.279 29.8104 105.228 30.0341L104.705 32.3392C104.654 32.5629 104.453 32.7283 104.255 32.7087Z" fill="url(#paint43_linear_1_3241)"/>
<mask id="mask7_1_3241" style="mask-type:luminance" maskUnits="userSpaceOnUse" x="100" y="29" width="6" height="4">
<path fill-rule="evenodd" clip-rule="evenodd" d="M104.255 32.7087L100.677 32.3536C100.479 32.3339 100.359 32.1366 100.41 31.9129L100.933 29.6078C100.984 29.3841 101.185 29.2186 101.383 29.2383L104.961 29.5934C105.159 29.6131 105.279 29.8104 105.228 30.0341L104.705 32.3392C104.654 32.5629 104.453 32.7283 104.255 32.7087Z" fill="white"/>
</mask>
<g mask="url(#mask7_1_3241)">
<path d="M100.149 32.1302C104.255 32.7087 104.378 32.831 104.966 31.1866C105.555 29.5422 105.336 32.816 105.336 32.816L104.085 33.471L99.8496 32.6259" fill="url(#paint44_linear_1_3241)"/>
</g>
<ellipse cx="101.786" cy="30.7568" rx="0.729561" ry="0.603632" transform="rotate(-59.4025 101.786 30.7568)" fill="white"/>
<path d="M104.631 30.5403L102.944 30.3728L102.982 30.2025L104.669 30.3699L104.631 30.5403Z" fill="white"/>
<path d="M104.499 31.1217L102.812 30.9543L102.851 30.7839L104.537 30.9514L104.499 31.1217Z" fill="white"/>
<path d="M103.913 31.6579L102.68 31.5356L102.719 31.3652L103.951 31.4875L103.913 31.6579Z" fill="white"/>
<path d="M103.695 29.4678L102.649 29.364L102.768 28.8409C102.842 28.5145 103.136 28.2731 103.425 28.3017C103.714 28.3304 103.888 28.6183 103.814 28.9447L103.695 29.4678Z" fill="url(#paint45_linear_1_3241)"/>
<mask id="mask8_1_3241" style="mask-type:luminance" maskUnits="userSpaceOnUse" x="102" y="28" width="2" height="2">
<path fill-rule="evenodd" clip-rule="evenodd" d="M103.695 29.4678L102.649 29.364L102.768 28.8409C102.842 28.5145 103.136 28.2731 103.425 28.3017C103.714 28.3304 103.888 28.6183 103.814 28.9447L103.695 29.4678Z" fill="white"/>
</mask>
<g mask="url(#mask8_1_3241)">
<path d="M103.9 28.9557C103.684 29.3301 102.697 29.0895 102.575 29.1962C102.453 29.3029 102.761 29.5299 102.761 29.5299L103.797 29.6328L103.908 29.1043" fill="url(#paint46_linear_1_3241)"/>
</g>
<path d="M104.306 29.9986L101.83 29.7528L101.97 29.1362L104.446 29.382L104.306 29.9986Z" fill="url(#paint47_linear_1_3241)"/>
</g>
<path d="M80.8721 42.1932C80.8721 42.1932 80.5259 48.2572 82.0907 51.1781L102.001 52.2088C104.049 52.2088 105.936 51.4511 106.93 50.2293L114.243 32.4111C114.923 31.2002 115.047 29.7518 114.582 28.4421C114.117 27.1324 113.109 26.0907 111.82 25.5875C109.631 24.7329 107.15 25.611 105.974 27.656L99.3294 41.6825L80.8721 42.1932Z" fill="url(#paint48_linear_1_3241)"/>
<path d="M114.228 6.09998C112.501 6.73619 104.286 6.32861 103.744 5.17345C103.744 5.17345 105.304 0.310578 106.065 0.295607C106.065 0.295607 112.844 -0.93227 114.353 1.61698C114.797 2.36756 114.228 6.09998 114.228 6.09998Z" fill="url(#paint49_linear_1_3241)"/>
<mask id="mask9_1_3241" style="mask-type:luminance" maskUnits="userSpaceOnUse" x="103" y="0" width="12" height="7">
<path fill-rule="evenodd" clip-rule="evenodd" d="M114.192 6.06073C112.476 6.69283 104.316 6.28788 103.777 5.14016C103.777 5.14016 105.327 0.308579 106.083 0.293705C106.083 0.293705 112.816 -0.92627 114.316 1.60658C114.757 2.35232 114.192 6.06073 114.192 6.06073Z" fill="white"/>
</mask>
<g mask="url(#mask9_1_3241)">
<path d="M114.921 5.36334C114.478 3.45348 111.06 7.56644 107.481 6.93935C103.902 6.31226 112.174 10.0179 112.174 10.0179L115.089 8.1854L116.156 6.44784" fill="url(#paint50_linear_1_3241)"/>
</g>
<circle cx="98.1864" cy="34.5252" r="0.842079" fill="white"/>
<rect x="26.9465" y="72.0819" width="20.5467" height="4.04198" transform="rotate(-180 26.9465 72.0819)" fill="url(#paint51_linear_1_3241)"/>
<mask id="mask10_1_3241" style="mask-type:luminance" maskUnits="userSpaceOnUse" x="6" y="68" width="21" height="5">
<rect x="26.9111" y="72.1708" width="20.477" height="4.08737" transform="rotate(-180 26.9111 72.1708)" fill="white"/>
</mask>
<g mask="url(#mask10_1_3241)">
<path d="M23.6286 68.7298C26.3014 71.8115 6.3768 70.3016 5.72883 71.8115C5.08086 73.3213 32.2139 76.6009 32.2139 76.6009L31.728 68.8938L29.1632 66.0242" fill="url(#paint52_linear_1_3241)"/>
</g>
<rect x="33.3463" y="120.922" width="33.3463" height="49.1774" rx="3.23413" transform="rotate(-180 33.3463 120.922)" fill="url(#paint53_linear_1_3241)"/>
<mask id="mask11_1_3241" style="mask-type:luminance" maskUnits="userSpaceOnUse" x="0" y="71" width="34" height="50">
<rect x="33.4314" y="120.77" width="33.0873" height="49.3514" rx="3.23413" transform="rotate(-180 33.4314 120.77)" fill="white"/>
</mask>
<g mask="url(#mask11_1_3241)">
<path d="M23.8499 70.0204C37.3515 92.2409 28.0059 119.901 7.70329 120.769C-12.5993 121.638 49.5976 126.348 49.5976 126.348L55.3983 78.9229L39.4463 64.5262H31.232" fill="url(#paint54_linear_1_3241)"/>
</g>
<rect x="31.3253" y="69.3873" width="28.9675" height="9.09445" rx="2.50191" transform="rotate(-180 31.3253 69.3873)" fill="url(#paint55_linear_1_3241)"/>
<mask id="mask12_1_3241" style="mask-type:luminance" maskUnits="userSpaceOnUse" x="2" y="60" width="30" height="10">
<rect x="31.3615" y="69.3708" width="28.946" height="9.02275" rx="2.50191" transform="rotate(-180 31.3615 69.3708)" fill="white"/>
</mask>
<g mask="url(#mask12_1_3241)">
<rect opacity="0.32" x="29.1903" y="67.6344" width="0.576145" height="5.3402" rx="0.288073" transform="rotate(180 29.1903 67.6344)" fill="url(#paint56_linear_1_3241)"/>
<rect opacity="0.32" x="26.5748" y="67.6344" width="0.576145" height="5.3402" rx="0.288073" transform="rotate(-180 26.5748 67.6344)" fill="url(#paint57_linear_1_3241)"/>
<rect opacity="0.32" x="18.7282" y="67.6344" width="0.576145" height="5.3402" rx="0.288073" transform="rotate(180 18.7282 67.6344)" fill="url(#paint58_linear_1_3241)"/>
<rect opacity="0.32" x="16.1127" y="67.6344" width="0.576145" height="5.3402" rx="0.288073" transform="rotate(180 16.1127 67.6344)" fill="url(#paint59_linear_1_3241)"/>
<rect opacity="0.32" x="13.4972" y="67.6344" width="0.576145" height="5.3402" rx="0.288073" transform="rotate(180 13.4972 67.6344)" fill="url(#paint60_linear_1_3241)"/>
<rect opacity="0.32" x="10.8817" y="67.6344" width="0.576145" height="5.3402" rx="0.288073" transform="rotate(180 10.8817 67.6344)" fill="url(#paint61_linear_1_3241)"/>
<rect opacity="0.32" x="8.26614" y="67.6344" width="0.576145" height="5.3402" rx="0.288073" transform="rotate(180 8.26614 67.6344)" fill="url(#paint62_linear_1_3241)"/>
<rect opacity="0.32" x="5.65063" y="67.6344" width="0.576145" height="5.3402" rx="0.288073" transform="rotate(180 5.65063 67.6344)" fill="url(#paint63_linear_1_3241)"/>
<rect opacity="0.32" x="23.9593" y="67.6344" width="0.576145" height="5.3402" rx="0.288073" transform="rotate(-180 23.9593 67.6344)" fill="url(#paint64_linear_1_3241)"/>
<rect opacity="0.32" x="21.3438" y="67.6344" width="0.576145" height="5.3402" rx="0.288073" transform="rotate(180 21.3438 67.6344)" fill="url(#paint65_linear_1_3241)"/>
</g>
<rect x="29.6412" y="114.186" width="21.2204" height="34.02" transform="rotate(-180 29.6412 114.186)" fill="url(#paint66_linear_1_3241)"/>
<rect x="29.6412" y="101.386" width="21.2204" height="8.42079" transform="rotate(-180 29.6412 101.386)" fill="white"/>
<rect x="34.6936" y="89.2604" width="16.8416" height="3.36831" fill="url(#paint67_linear_1_3241)"/>
<mask id="mask13_1_3241" style="mask-type:luminance" maskUnits="userSpaceOnUse" x="34" y="89" width="18" height="4">
<rect x="34.7481" y="89.3055" width="16.7595" height="3.41705" fill="white"/>
</mask>
<g mask="url(#mask13_1_3241)">
<path d="M37.4347 89.8461C35.2472 92.4223 51.5545 91.1601 52.0848 92.4223C52.6151 93.6845 30.408 96.4263 30.408 96.4263L30.8057 89.9831L32.9049 87.5841" fill="url(#paint68_linear_1_3241)"/>
</g>
<rect x="29.6412" y="91.955" width="27.2833" height="29.6412" rx="2.27644" fill="url(#paint69_linear_1_3241)"/>
<mask id="mask14_1_3241" style="mask-type:luminance" maskUnits="userSpaceOnUse" x="29" y="92" width="28" height="30">
<rect x="29.6886" y="92.0055" width="27.2526" height="29.678" rx="2.27644" fill="white"/>
</mask>
<g mask="url(#mask14_1_3241)">
<path d="M37.5805 91.1651C26.4597 104.528 34.1574 121.161 50.8798 121.684C67.6022 122.206 16.3732 125.038 16.3732 125.038L11.5953 96.5186L24.7344 87.8611H31.5002" fill="url(#paint70_linear_1_3241)"/>
</g>
<rect x="31.3253" y="82.5237" width="23.5782" height="7.41029" rx="2.05992" fill="url(#paint71_linear_1_3241)"/>
<mask id="mask15_1_3241" style="mask-type:luminance" maskUnits="userSpaceOnUse" x="31" y="82" width="25" height="9">
<rect x="31.3831" y="82.9147" width="23.8445" height="7.20603" rx="2.05992" fill="white"/>
</mask>
<g mask="url(#mask15_1_3241)">
<rect opacity="0.32" x="33.1717" y="84.4689" width="0.474605" height="4.26495" rx="0.237302" fill="url(#paint72_linear_1_3241)"/>
<rect opacity="0.32" x="35.3263" y="84.4689" width="0.474605" height="4.26495" rx="0.237302" fill="url(#paint73_linear_1_3241)"/>
<rect opacity="0.32" x="41.79" y="84.4689" width="0.474605" height="4.26495" rx="0.237302" fill="url(#paint74_linear_1_3241)"/>
<rect opacity="0.32" x="43.9445" y="84.4689" width="0.474605" height="4.26495" rx="0.237302" fill="url(#paint75_linear_1_3241)"/>
<rect opacity="0.32" x="46.0991" y="84.4689" width="0.474605" height="4.26495" rx="0.237302" fill="url(#paint76_linear_1_3241)"/>
<rect opacity="0.32" x="48.2536" y="84.4689" width="0.474605" height="4.26495" rx="0.237302" fill="url(#paint77_linear_1_3241)"/>
<rect opacity="0.32" x="50.4082" y="84.4689" width="0.474605" height="4.26495" rx="0.237302" fill="url(#paint78_linear_1_3241)"/>
<rect opacity="0.32" x="52.5628" y="84.4689" width="0.474605" height="4.26495" rx="0.237302" fill="url(#paint79_linear_1_3241)"/>
<rect opacity="0.32" x="37.4808" y="84.4689" width="0.474605" height="4.26495" rx="0.237302" fill="url(#paint80_linear_1_3241)"/>
<rect opacity="0.32" x="39.6354" y="84.4689" width="0.474605" height="4.26495" rx="0.237302" fill="url(#paint81_linear_1_3241)"/>
</g>
<rect x="32.6726" y="97.0074" width="17.5152" height="20.5467" fill="url(#paint82_linear_1_3241)"/>
<rect x="32.6726" y="109.47" width="17.5152" height="7.07346" fill="white"/>
<rect x="46.1459" y="112.165" width="27.957" height="11.4523" rx="5.72613" fill="url(#paint83_linear_1_3241)"/>
<mask id="mask16_1_3241" style="mask-type:luminance" maskUnits="userSpaceOnUse" x="46" y="112" width="29" height="12">
<rect x="46.1708" y="112.199" width="27.8505" height="11.2064" rx="5.60322" fill="white"/>
</mask>
<g mask="url(#mask16_1_3241)">
<rect x="59.7843" y="111.68" width="16.0036" height="14.9419" fill="url(#paint84_linear_1_3241)"/>
<mask id="mask17_1_3241" style="mask-type:luminance" maskUnits="userSpaceOnUse" x="59" y="111" width="17" height="16">
<rect x="59.7843" y="111.68" width="16.0036" height="14.9419" fill="white"/>
</mask>
<g mask="url(#mask17_1_3241)">
<path d="M58.4156 112.199C73.0065 112.814 72.5383 120.137 68.8711 124.422C65.2039 128.707 76.7517 126.993 76.7517 126.993L78.0001 112.58L69.7294 108.529H61.5367" fill="#3F87E7"/>
</g>
<path d="M49.1306 111.1C42.9285 120.674 52.9768 123.593 60.474 123.593C67.9712 123.593 44.293 129.369 44.293 129.369L39.9626 122.124L43.8249 110.905L52.4892 109.737" fill="url(#paint85_linear_1_3241)"/>
</g>
<defs>
<linearGradient id="paint0_linear_1_3241" x1="2.021" y1="123.954" x2="129.343" y2="123.954" gradientUnits="userSpaceOnUse">
<stop stop-color="#A7F6FF"/>
<stop offset="1" stop-color="#34A595"/>
</linearGradient>
<linearGradient id="paint1_linear_1_3241" x1="15.1574" y1="68.0399" x2="101.723" y2="68.0399" gradientUnits="userSpaceOnUse">
<stop offset="0.1035" stop-color="#F6FBFF"/>
<stop offset="0.8866" stop-color="#E9EFFC"/>
</linearGradient>
<linearGradient id="paint2_linear_1_3241" x1="15.1574" y1="18.1889" x2="101.723" y2="18.1889" gradientUnits="userSpaceOnUse">
<stop stop-color="#98C5FF"/>
<stop offset="1" stop-color="#3580E4"/>
</linearGradient>
<linearGradient id="paint3_linear_1_3241" x1="-16.4076" y1="33.1318" x2="-16.6141" y2="54.6496" gradientUnits="userSpaceOnUse">
<stop offset="0.1023" stop-color="#E4ECF8"/>
<stop offset="0.8855" stop-color="#B4D2FF"/>
</linearGradient>
<linearGradient id="paint4_linear_1_3241" x1="-50.9549" y1="36.1409" x2="-51.0479" y2="57.4012" gradientUnits="userSpaceOnUse">
<stop offset="0.1023" stop-color="#E4ECF8"/>
<stop offset="0.8855" stop-color="#B4D2FF"/>
</linearGradient>
<linearGradient id="paint5_linear_1_3241" x1="40.3773" y1="35.0296" x2="38.8495" y2="57.9905" gradientUnits="userSpaceOnUse">
<stop offset="0.1023" stop-color="#E4ECF8"/>
<stop offset="0.8855" stop-color="#B4D2FF"/>
</linearGradient>
<linearGradient id="paint6_linear_1_3241" x1="2.31801" y1="33.1535" x2="1.96331" y2="54.9272" gradientUnits="userSpaceOnUse">
<stop offset="0.1023" stop-color="#E4ECF8"/>
<stop offset="0.8855" stop-color="#B4D2FF"/>
</linearGradient>
<linearGradient id="paint7_linear_1_3241" x1="47.3333" y1="33.5955" x2="44.5722" y2="57.2835" gradientUnits="userSpaceOnUse">
<stop offset="0.1023" stop-color="#E4ECF8"/>
<stop offset="0.8855" stop-color="#B4D2FF"/>
</linearGradient>
<linearGradient id="paint8_linear_1_3241" x1="45.3072" y1="37.4842" x2="43.7794" y2="60.4451" gradientUnits="userSpaceOnUse">
<stop offset="0.1023" stop-color="#E4ECF8"/>
<stop offset="0.8855" stop-color="#B4D2FF"/>
</linearGradient>
<linearGradient id="paint9_linear_1_3241" x1="16.1481" y1="49.4048" x2="15.9984" y2="65.2825" gradientUnits="userSpaceOnUse">
<stop offset="0.0324" stop-color="#E1EBFF"/>
<stop offset="1" stop-color="#99BEFF"/>
</linearGradient>
<linearGradient id="paint10_linear_1_3241" x1="20.2535" y1="21.9641" x2="15.8889" y2="52.7078" gradientUnits="userSpaceOnUse">
<stop stop-color="#FFADA9"/>
<stop offset="1" stop-color="#FF6559"/>
</linearGradient>
<linearGradient id="paint11_linear_1_3241" x1="19.8101" y1="17.4636" x2="17.849" y2="37.2291" gradientUnits="userSpaceOnUse">
<stop offset="0.0324" stop-color="#E1EBFF"/>
<stop offset="1" stop-color="#99BEFF"/>
</linearGradient>
<linearGradient id="paint12_linear_1_3241" x1="-103.026" y1="20.1065" x2="-103.035" y2="40.3143" gradientUnits="userSpaceOnUse">
<stop offset="0.0324" stop-color="#E1EBFF"/>
<stop offset="1" stop-color="#99BEFF"/>
</linearGradient>
<linearGradient id="paint13_linear_1_3241" x1="-1.892" y1="19.5871" x2="-1.98766" y2="38.3096" gradientUnits="userSpaceOnUse">
<stop offset="0.0324" stop-color="#E1EBFF"/>
<stop offset="1" stop-color="#99BEFF"/>
</linearGradient>
<linearGradient id="paint14_linear_1_3241" x1="98.3303" y1="40.2114" x2="76.0143" y2="44.597" gradientUnits="userSpaceOnUse">
<stop offset="0.1023" stop-color="white"/>
<stop offset="0.8855" stop-color="#E3EBFD"/>
</linearGradient>
<linearGradient id="paint15_linear_1_3241" x1="98.1248" y1="11.9142" x2="109.237" y2="19.6275" gradientUnits="userSpaceOnUse">
<stop offset="0.1023" stop-color="#FFAFBC"/>
<stop offset="0.8855" stop-color="#FFDDDC"/>
</linearGradient>
<linearGradient id="paint16_linear_1_3241" x1="97.9518" y1="9.62187" x2="106.893" y2="21.2752" gradientUnits="userSpaceOnUse">
<stop offset="0.1023" stop-color="#FFAFBC"/>
<stop offset="0.8855" stop-color="#FFDDDC"/>
</linearGradient>
<linearGradient id="paint17_linear_1_3241" x1="108.445" y1="0.481664" x2="106.698" y2="11.1147" gradientUnits="userSpaceOnUse">
<stop offset="0.1023" stop-color="#915758"/>
<stop offset="0.8855" stop-color="#2C090B"/>
</linearGradient>
<linearGradient id="paint18_linear_1_3241" x1="100.92" y1="8.32104" x2="109.969" y2="19.3856" gradientUnits="userSpaceOnUse">
<stop offset="0.1023" stop-color="#FFAFBC"/>
<stop offset="0.8855" stop-color="#FFDDDC"/>
</linearGradient>
<linearGradient id="paint19_linear_1_3241" x1="102.204" y1="0.0844597" x2="101.321" y2="10.8696" gradientUnits="userSpaceOnUse">
<stop offset="0.1023" stop-color="#915758"/>
<stop offset="0.8855" stop-color="#2C090B"/>
</linearGradient>
<linearGradient id="paint20_linear_1_3241" x1="80.5028" y1="129.68" x2="92.6287" y2="129.68" gradientUnits="userSpaceOnUse">
<stop offset="0.1023" stop-color="#FCADBA"/>
<stop offset="0.8855" stop-color="#FBDAD9"/>
</linearGradient>
<linearGradient id="paint21_linear_1_3241" x1="82.3489" y1="121.803" x2="91.2105" y2="121.803" gradientUnits="userSpaceOnUse">
<stop offset="0.1011" stop-color="#FF7638"/>
<stop offset="0.8855" stop-color="#FF3929"/>
</linearGradient>
<linearGradient id="paint22_linear_1_3241" x1="113.175" y1="129.006" x2="127.996" y2="129.006" gradientUnits="userSpaceOnUse">
<stop offset="0.1023" stop-color="#FCADBA"/>
<stop offset="0.8855" stop-color="#FBDAD9"/>
</linearGradient>
<linearGradient id="paint23_linear_1_3241" x1="115.605" y1="119.217" x2="127.18" y2="119.217" gradientUnits="userSpaceOnUse">
<stop offset="0.1023" stop-color="#FCADBA"/>
<stop offset="0.8855" stop-color="#FBDAD9"/>
</linearGradient>
<linearGradient id="paint24_linear_1_3241" x1="114.842" y1="119.796" x2="124.389" y2="119.796" gradientUnits="userSpaceOnUse">
<stop offset="0.1011" stop-color="#FF7638"/>
<stop offset="0.8855" stop-color="#FF3929"/>
</linearGradient>
<linearGradient id="paint25_linear_1_3241" x1="65.0085" y1="131.701" x2="89.2603" y2="131.701" gradientUnits="userSpaceOnUse">
<stop offset="0.1023" stop-color="#915758"/>
<stop offset="0.8855" stop-color="#2C090B"/>
</linearGradient>
<linearGradient id="paint26_linear_1_3241" x1="107.449" y1="133.048" x2="128.67" y2="133.048" gradientUnits="userSpaceOnUse">
<stop offset="0.1023" stop-color="#915758"/>
<stop offset="0.8855" stop-color="#2C090B"/>
</linearGradient>
<linearGradient id="paint27_linear_1_3241" x1="106.102" y1="22.2309" x2="114.523" y2="22.2309" gradientUnits="userSpaceOnUse">
<stop stop-color="#FFADA9"/>
<stop offset="1" stop-color="#FF6559"/>
</linearGradient>
<linearGradient id="paint28_linear_1_3241" x1="83.1974" y1="117.891" x2="110.481" y2="117.891" gradientUnits="userSpaceOnUse">
<stop stop-color="#98C5FF"/>
<stop offset="1" stop-color="#3580E4"/>
</linearGradient>
<linearGradient id="paint29_linear_1_3241" x1="89.2371" y1="103.174" x2="106.177" y2="103.174" gradientUnits="userSpaceOnUse">
<stop stop-color="#98C5FF"/>
<stop offset="1" stop-color="#3580E4"/>
</linearGradient>
<linearGradient id="paint30_linear_1_3241" x1="92.6287" y1="118.901" x2="124.291" y2="118.901" gradientUnits="userSpaceOnUse">
<stop stop-color="#98C5FF"/>
<stop offset="0.6481" stop-color="#3580E4"/>
</linearGradient>
<linearGradient id="paint31_linear_1_3241" x1="90.2948" y1="74.0235" x2="117.388" y2="74.0235" gradientUnits="userSpaceOnUse">
<stop stop-color="#98C5FF"/>
<stop offset="0.6481" stop-color="#3580E4"/>
</linearGradient>
<linearGradient id="paint32_linear_1_3241" x1="105.274" y1="100.231" x2="121.059" y2="100.231" gradientUnits="userSpaceOnUse">
<stop stop-color="#98C5FF"/>
<stop offset="0.6481" stop-color="#3580E4"/>
</linearGradient>
<linearGradient id="paint33_linear_1_3241" x1="101.827" y1="75.5756" x2="135.311" y2="52.0622" gradientUnits="userSpaceOnUse">
<stop stop-color="#FFADA9"/>
<stop offset="1" stop-color="#FF6559"/>
</linearGradient>
<linearGradient id="paint34_linear_1_3241" x1="68.568" y1="62.6277" x2="69.5762" y2="60.7325" gradientUnits="userSpaceOnUse">
<stop stop-color="#FFADA9"/>
<stop offset="1" stop-color="#FF6559"/>
</linearGradient>
<linearGradient id="paint35_linear_1_3241" x1="66.8713" y1="50.2024" x2="100.687" y2="50.5284" gradientUnits="userSpaceOnUse">
<stop stop-color="#FFE5CF"/>
<stop offset="1" stop-color="#FFAE6C"/>
</linearGradient>
<linearGradient id="paint36_linear_1_3241" x1="69.5566" y1="76.5687" x2="78.3104" y2="78.5332" gradientUnits="userSpaceOnUse">
<stop stop-color="#FFE5CF"/>
<stop offset="1" stop-color="#FFAE6C"/>
</linearGradient>
<linearGradient id="paint37_linear_1_3241" x1="73.1631" y1="30.2419" x2="78.3221" y2="30.7874" gradientUnits="userSpaceOnUse">
<stop stop-color="#FFE5CF"/>
<stop offset="1" stop-color="#FFAE6C"/>
</linearGradient>
<linearGradient id="paint38_linear_1_3241" x1="71.0714" y1="47.4932" x2="87.913" y2="47.4932" gradientUnits="userSpaceOnUse">
<stop offset="0.1023" stop-color="#FCADBA"/>
<stop offset="0.8855" stop-color="#FBDAD9"/>
</linearGradient>
<linearGradient id="paint39_linear_1_3241" x1="79.4261" y1="48.5863" x2="83.0657" y2="48.5863" gradientUnits="userSpaceOnUse">
<stop offset="0.1011" stop-color="#FF7638"/>
<stop offset="0.8855" stop-color="#FF3929"/>
</linearGradient>
<linearGradient id="paint40_linear_1_3241" x1="92.9655" y1="100.039" x2="128.67" y2="100.039" gradientUnits="userSpaceOnUse">
<stop offset="0.1023" stop-color="white"/>
<stop offset="0.8855" stop-color="#E3EBFD"/>
</linearGradient>
<linearGradient id="paint41_linear_1_3241" x1="123.749" y1="76.8983" x2="115.352" y2="50.7031" gradientUnits="userSpaceOnUse">
<stop offset="0.1023" stop-color="white"/>
<stop offset="0.8855" stop-color="#E3EBFD"/>
</linearGradient>
<linearGradient id="paint42_linear_1_3241" x1="90.2646" y1="62.7261" x2="109.606" y2="62.7261" gradientUnits="userSpaceOnUse">
<stop offset="0.1023" stop-color="white"/>
<stop offset="0.8855" stop-color="#CDDEFD"/>
</linearGradient>
<linearGradient id="paint43_linear_1_3241" x1="100.399" y1="32.7103" x2="105.24" y2="32.7103" gradientUnits="userSpaceOnUse">
<stop stop-color="#98C5FF"/>
<stop offset="1" stop-color="#3580E4"/>
</linearGradient>
<linearGradient id="paint44_linear_1_3241" x1="99.2682" y1="29.9663" x2="99.2829" y2="33.2447" gradientUnits="userSpaceOnUse">
<stop stop-color="#00BEDE"/>
<stop offset="0.9965" stop-color="#4A8BFD"/>
</linearGradient>
<linearGradient id="paint45_linear_1_3241" x1="102.722" y1="28.3017" x2="102.687" y2="29.3643" gradientUnits="userSpaceOnUse">
<stop stop-color="#FFE5CF"/>
<stop offset="1" stop-color="#FFAE6C"/>
</linearGradient>
<linearGradient id="paint46_linear_1_3241" x1="117.134" y1="-39.6601" x2="117.181" y2="-39.313" gradientUnits="userSpaceOnUse">
<stop stop-color="#FFE5CF"/>
<stop offset="1" stop-color="#FFAE6C"/>
</linearGradient>
<linearGradient id="paint47_linear_1_3241" x1="110.964" y1="-41.1207" x2="111.046" y2="-36.7715" gradientUnits="userSpaceOnUse">
<stop stop-color="#FFE5CF"/>
<stop offset="1" stop-color="#FFAE6C"/>
</linearGradient>
<linearGradient id="paint48_linear_1_3241" x1="93.5275" y1="82.3817" x2="127.642" y2="38.552" gradientUnits="userSpaceOnUse">
<stop offset="0.1023" stop-color="white"/>
<stop offset="0.8855" stop-color="#E3EBFD"/>
</linearGradient>
<linearGradient id="paint49_linear_1_3241" x1="104.466" y1="-1.08412" x2="104.426" y2="4.57613" gradientUnits="userSpaceOnUse">
<stop offset="0.1023" stop-color="white"/>
<stop offset="0.8855" stop-color="#E3EBFD"/>
</linearGradient>
<linearGradient id="paint50_linear_1_3241" x1="110.873" y1="-0.351178" x2="110.784" y2="1.45872" gradientUnits="userSpaceOnUse">
<stop offset="0.1023" stop-color="white"/>
<stop offset="0.8855" stop-color="#DDE4FD"/>
</linearGradient>
<linearGradient id="paint51_linear_1_3241" x1="53.1346" y1="81.2129" x2="53.1447" y2="74.837" gradientUnits="userSpaceOnUse">
<stop stop-color="#00A6F0"/>
<stop offset="1" stop-color="#006FF1"/>
</linearGradient>
<linearGradient id="paint52_linear_1_3241" x1="35.9046" y1="83.9065" x2="35.3093" y2="79.5845" gradientUnits="userSpaceOnUse">
<stop stop-color="#98C5FF"/>
<stop offset="1" stop-color="#3580E4"/>
</linearGradient>
<linearGradient id="paint53_linear_1_3241" x1="33.3463" y1="170.1" x2="66.6926" y2="170.1" gradientUnits="userSpaceOnUse">
<stop stop-color="#77C1BC"/>
<stop offset="1" stop-color="#34A595"/>
</linearGradient>
<linearGradient id="paint54_linear_1_3241" x1="55.3983" y1="64.5262" x2="3.6301" y2="64.5262" gradientUnits="userSpaceOnUse">
<stop stop-color="#77C1BC"/>
<stop offset="1" stop-color="#34A595"/>
</linearGradient>
<linearGradient id="paint55_linear_1_3241" x1="31.3253" y1="78.4818" x2="60.2928" y2="78.4818" gradientUnits="userSpaceOnUse">
<stop offset="0.1023" stop-color="#915758"/>
<stop offset="0.8855" stop-color="#2C090B"/>
</linearGradient>
<linearGradient id="paint56_linear_1_3241" x1="29.1903" y1="72.9746" x2="29.7664" y2="72.9746" gradientUnits="userSpaceOnUse">
<stop offset="0.1023" stop-color="#915758"/>
<stop offset="0.8855" stop-color="#2C090B"/>
</linearGradient>
<linearGradient id="paint57_linear_1_3241" x1="26.5748" y1="72.9746" x2="27.1509" y2="72.9746" gradientUnits="userSpaceOnUse">
<stop offset="0.1023" stop-color="#915758"/>
<stop offset="0.8855" stop-color="#2C090B"/>
</linearGradient>
<linearGradient id="paint58_linear_1_3241" x1="18.7282" y1="72.9746" x2="19.3044" y2="72.9746" gradientUnits="userSpaceOnUse">
<stop offset="0.1023" stop-color="#915758"/>
<stop offset="0.8855" stop-color="#2C090B"/>
</linearGradient>
<linearGradient id="paint59_linear_1_3241" x1="16.1127" y1="72.9746" x2="16.6888" y2="72.9746" gradientUnits="userSpaceOnUse">
<stop offset="0.1023" stop-color="#915758"/>
<stop offset="0.8855" stop-color="#2C090B"/>
</linearGradient>
<linearGradient id="paint60_linear_1_3241" x1="13.4972" y1="72.9746" x2="14.0733" y2="72.9746" gradientUnits="userSpaceOnUse">
<stop offset="0.1023" stop-color="#915758"/>
<stop offset="0.8855" stop-color="#2C090B"/>
</linearGradient>
<linearGradient id="paint61_linear_1_3241" x1="10.8817" y1="72.9746" x2="11.4578" y2="72.9746" gradientUnits="userSpaceOnUse">
<stop offset="0.1023" stop-color="#915758"/>
<stop offset="0.8855" stop-color="#2C090B"/>
</linearGradient>
<linearGradient id="paint62_linear_1_3241" x1="8.26614" y1="72.9746" x2="8.84228" y2="72.9746" gradientUnits="userSpaceOnUse">
<stop offset="0.1023" stop-color="#915758"/>
<stop offset="0.8855" stop-color="#2C090B"/>
</linearGradient>
<linearGradient id="paint63_linear_1_3241" x1="5.65063" y1="72.9746" x2="6.22677" y2="72.9746" gradientUnits="userSpaceOnUse">
<stop offset="0.1023" stop-color="#915758"/>
<stop offset="0.8855" stop-color="#2C090B"/>
</linearGradient>
<linearGradient id="paint64_linear_1_3241" x1="23.9593" y1="72.9746" x2="24.5354" y2="72.9746" gradientUnits="userSpaceOnUse">
<stop offset="0.1023" stop-color="#915758"/>
<stop offset="0.8855" stop-color="#2C090B"/>
</linearGradient>
<linearGradient id="paint65_linear_1_3241" x1="21.3437" y1="72.9746" x2="21.9199" y2="72.9746" gradientUnits="userSpaceOnUse">
<stop offset="0.1023" stop-color="#915758"/>
<stop offset="0.8855" stop-color="#2C090B"/>
</linearGradient>
<linearGradient id="paint66_linear_1_3241" x1="29.6412" y1="148.206" x2="50.8616" y2="148.206" gradientUnits="userSpaceOnUse">
<stop stop-color="#FFCC92"/>
<stop offset="1" stop-color="#F79748"/>
</linearGradient>
<linearGradient id="paint67_linear_1_3241" x1="55.7925" y1="94.4845" x2="55.8156" y2="89.2569" gradientUnits="userSpaceOnUse">
<stop offset="0.1023" stop-color="#DCDFF8"/>
<stop offset="0.8855" stop-color="#F5F7FE"/>
</linearGradient>
<linearGradient id="paint68_linear_1_3241" x1="51.294" y1="93.6893" x2="51.4782" y2="85.3979" gradientUnits="userSpaceOnUse">
<stop offset="0.1023" stop-color="#DCDFF8"/>
<stop offset="0.8855" stop-color="#F5F7FE"/>
</linearGradient>
<linearGradient id="paint69_linear_1_3241" x1="29.6412" y1="121.596" x2="56.9245" y2="121.596" gradientUnits="userSpaceOnUse">
<stop offset="0.1023" stop-color="#DCDFF8"/>
<stop offset="0.8855" stop-color="#F5F7FE"/>
</linearGradient>
<linearGradient id="paint70_linear_1_3241" x1="55.0698" y1="129.446" x2="84.7446" y2="80.7135" gradientUnits="userSpaceOnUse">
<stop offset="0.1023" stop-color="#DCDFF8"/>
<stop offset="0.8855" stop-color="#F5F7FE"/>
</linearGradient>
<linearGradient id="paint71_linear_1_3241" x1="31.3253" y1="89.934" x2="54.9035" y2="89.934" gradientUnits="userSpaceOnUse">
<stop stop-color="#FFADA9"/>
<stop offset="1" stop-color="#FF6559"/>
</linearGradient>
<linearGradient id="paint72_linear_1_3241" x1="33.1717" y1="88.7338" x2="33.6463" y2="88.7338" gradientUnits="userSpaceOnUse">
<stop stop-color="#FFADA9"/>
<stop offset="1" stop-color="#FF6559"/>
</linearGradient>
<linearGradient id="paint73_linear_1_3241" x1="35.3263" y1="88.7338" x2="35.8009" y2="88.7338" gradientUnits="userSpaceOnUse">
<stop stop-color="#FFADA9"/>
<stop offset="1" stop-color="#FF6559"/>
</linearGradient>
<linearGradient id="paint74_linear_1_3241" x1="41.79" y1="88.7338" x2="42.2646" y2="88.7338" gradientUnits="userSpaceOnUse">
<stop stop-color="#FFADA9"/>
<stop offset="1" stop-color="#FF6559"/>
</linearGradient>
<linearGradient id="paint75_linear_1_3241" x1="43.9445" y1="88.7338" x2="44.4191" y2="88.7338" gradientUnits="userSpaceOnUse">
<stop stop-color="#FFADA9"/>
<stop offset="1" stop-color="#FF6559"/>
</linearGradient>
<linearGradient id="paint76_linear_1_3241" x1="46.0991" y1="88.7338" x2="46.5737" y2="88.7338" gradientUnits="userSpaceOnUse">
<stop stop-color="#FFADA9"/>
<stop offset="1" stop-color="#FF6559"/>
</linearGradient>
<linearGradient id="paint77_linear_1_3241" x1="48.2536" y1="88.7338" x2="48.7282" y2="88.7338" gradientUnits="userSpaceOnUse">
<stop stop-color="#FFADA9"/>
<stop offset="1" stop-color="#FF6559"/>
</linearGradient>
<linearGradient id="paint78_linear_1_3241" x1="50.4082" y1="88.7338" x2="50.8828" y2="88.7338" gradientUnits="userSpaceOnUse">
<stop stop-color="#FFADA9"/>
<stop offset="1" stop-color="#FF6559"/>
</linearGradient>
<linearGradient id="paint79_linear_1_3241" x1="52.5628" y1="88.7338" x2="53.0374" y2="88.7338" gradientUnits="userSpaceOnUse">
<stop stop-color="#FFADA9"/>
<stop offset="1" stop-color="#FF6559"/>
</linearGradient>
<linearGradient id="paint80_linear_1_3241" x1="37.4808" y1="88.7338" x2="37.9554" y2="88.7338" gradientUnits="userSpaceOnUse">
<stop stop-color="#FFADA9"/>
<stop offset="1" stop-color="#FF6559"/>
</linearGradient>
<linearGradient id="paint81_linear_1_3241" x1="39.6354" y1="88.7338" x2="40.11" y2="88.7338" gradientUnits="userSpaceOnUse">
<stop stop-color="#FFADA9"/>
<stop offset="1" stop-color="#FF6559"/>
</linearGradient>
<linearGradient id="paint82_linear_1_3241" x1="32.6726" y1="117.554" x2="50.1879" y2="117.554" gradientUnits="userSpaceOnUse">
<stop stop-color="#FFADA9"/>
<stop offset="1" stop-color="#FF6559"/>
</linearGradient>
<linearGradient id="paint83_linear_1_3241" x1="79.3211" y1="126.323" x2="79.2028" y2="110.913" gradientUnits="userSpaceOnUse">
<stop offset="0.1023" stop-color="#DCDFF8"/>
<stop offset="0.8855" stop-color="#F5F7FE"/>
</linearGradient>
<linearGradient id="paint84_linear_1_3241" x1="62.2729" y1="111.223" x2="62.3825" y2="121.332" gradientUnits="userSpaceOnUse">
<stop stop-color="#98C5FF"/>
<stop offset="1" stop-color="#3580E4"/>
</linearGradient>
<linearGradient id="paint85_linear_1_3241" x1="56.6211" y1="121.011" x2="58.3168" y2="112.052" gradientUnits="userSpaceOnUse">
<stop offset="0.1023" stop-color="#DCDFF8"/>
<stop offset="0.8855" stop-color="#F5F7FE"/>
</linearGradient>
</defs>
</svg>
